<svg xmlns="http://www.w3.org/2000/svg" xmlns:xlink="http://www.w3.org/1999/xlink" width="816" zoomAndPan="magnify" viewBox="0 0 612 791.999994" height="1056" preserveAspectRatio="xMidYMid meet" version="1.0"><defs><g/><clipPath id="6d32007879"><path d="M 170.070312 278 L 414.570312 278 L 414.570312 371 L 170.070312 371 Z M 170.070312 278 " clip-rule="nonzero"/></clipPath></defs><g clip-path="url(#6d32007879)"><path fill="#000000" d="M 372.769531 304.152344 C 351.042969 273.726562 323.730469 273.53125 292.320312 288.699219 C 260.898438 273.53125 233.589844 273.726562 211.867188 304.152344 C 190.960938 333.410156 193.050781 341.765625 170.070312 357.09375 C 190.171875 373.164062 264.359375 386.632812 292.320312 321.949219 C 320.269531 386.632812 394.46875 373.164062 414.570312 357.09375 C 391.578125 341.765625 393.667969 333.410156 372.769531 304.152344 Z M 372.769531 304.152344 " fill-opacity="1" fill-rule="nonzero"/></g><g fill="#000000" fill-opacity="1"><g transform="translate(264.752587, 218.141815)"><g><path d="M 16.0625 -22.125 L 16.0625 -19.78125 L 10.03125 -19.78125 L 10.03125 0 L 7.140625 0 L 7.140625 -19.78125 L 1.078125 -19.78125 L 1.078125 -22.125 Z M 16.0625 -22.125 "/></g></g></g><g fill="#000000" fill-opacity="1"><g transform="translate(281.927216, 218.141815)"><g><path d="M 19.5 -22.125 L 19.5 0 L 16.609375 0 L 16.609375 -10.03125 L 5.328125 -10.03125 L 5.328125 0 L 2.4375 0 L 2.4375 -22.125 L 5.328125 -22.125 L 5.328125 -12.421875 L 16.609375 -12.421875 L 16.609375 -22.125 Z M 19.5 -22.125 "/></g></g></g><g fill="#000000" fill-opacity="1"><g transform="translate(303.89551, 218.141815)"><g><path d="M 5.328125 -19.78125 L 5.328125 -12.375 L 13.40625 -12.375 L 13.40625 -10 L 5.328125 -10 L 5.328125 -2.375 L 14.34375 -2.375 L 14.34375 0 L 2.4375 0 L 2.4375 -22.15625 L 14.34375 -22.15625 L 14.34375 -19.78125 Z M 5.328125 -19.78125 "/></g></g></g><g fill="#000000" fill-opacity="1"><g transform="translate(248.674459, 268.391812)"><g><path d="M 23.59375 0 L 20.15625 0 L 6.34375 -20.953125 L 6.34375 0 L 2.90625 0 L 2.90625 -26.34375 L 6.34375 -26.34375 L 20.15625 -5.4375 L 20.15625 -26.34375 L 23.59375 -26.34375 Z M 23.59375 0 "/></g></g></g><g fill="#000000" fill-opacity="1"><g transform="translate(275.209908, 268.391812)"><g><path d="M 6.34375 -26.3125 L 6.34375 0 L 2.90625 0 L 2.90625 -26.3125 Z M 6.34375 -26.3125 "/></g></g></g><g fill="#000000" fill-opacity="1"><g transform="translate(284.495426, 268.391812)"><g><path d="M 1.625 -13.171875 C 1.625 -15.742188 2.203125 -18.050781 3.359375 -20.09375 C 4.515625 -22.144531 6.09375 -23.75 8.09375 -24.90625 C 10.09375 -26.070312 12.316406 -26.65625 14.765625 -26.65625 C 17.628906 -26.65625 20.128906 -25.960938 22.265625 -24.578125 C 24.410156 -23.191406 25.972656 -21.226562 26.953125 -18.6875 L 22.84375 -18.6875 C 22.113281 -20.269531 21.0625 -21.488281 19.6875 -22.34375 C 18.3125 -23.195312 16.671875 -23.625 14.765625 -23.625 C 12.921875 -23.625 11.269531 -23.195312 9.8125 -22.34375 C 8.351562 -21.488281 7.207031 -20.273438 6.375 -18.703125 C 5.550781 -17.128906 5.140625 -15.285156 5.140625 -13.171875 C 5.140625 -11.085938 5.550781 -9.257812 6.375 -7.6875 C 7.207031 -6.113281 8.351562 -4.894531 9.8125 -4.03125 C 11.269531 -3.175781 12.921875 -2.75 14.765625 -2.75 C 16.671875 -2.75 18.3125 -3.171875 19.6875 -4.015625 C 21.0625 -4.859375 22.113281 -6.070312 22.84375 -7.65625 L 26.953125 -7.65625 C 25.972656 -5.144531 24.410156 -3.203125 22.265625 -1.828125 C 20.128906 -0.460938 17.628906 0.21875 14.765625 0.21875 C 12.316406 0.21875 10.09375 -0.347656 8.09375 -1.484375 C 6.09375 -2.628906 4.515625 -4.222656 3.359375 -6.265625 C 2.203125 -8.304688 1.625 -10.609375 1.625 -13.171875 Z M 1.625 -13.171875 "/></g></g></g><g fill="#000000" fill-opacity="1"><g transform="translate(313.635344, 268.391812)"><g><path d="M 17.171875 0 L 6.34375 -12 L 6.34375 0 L 2.90625 0 L 2.90625 -26.3125 L 6.34375 -26.3125 L 6.34375 -14.125 L 17.21875 -26.3125 L 21.5625 -26.3125 L 9.625 -13.140625 L 21.671875 0 Z M 17.171875 0 "/></g></g></g></svg>
