<svg xmlns="http://www.w3.org/2000/svg" xmlns:xlink="http://www.w3.org/1999/xlink" width="816" zoomAndPan="magnify" viewBox="0 0 612 791.999994" height="1056" preserveAspectRatio="xMidYMid meet" version="1.0"><defs><g/><clipPath id="bba9b0980f"><path d="M 170.070312 278 L 414.570312 278 L 414.570312 371 L 170.070312 371 Z M 170.070312 278 " clip-rule="nonzero"/></clipPath><clipPath id="efe24d9b19"><path d="M 149.277344 132 L 435.777344 132 L 435.777344 231 L 149.277344 231 Z M 149.277344 132 " clip-rule="nonzero"/></clipPath><clipPath id="75a8893b26"><rect x="0" width="108" y="0" height="106"/></clipPath></defs><g clip-path="url(#bba9b0980f)"><path fill="#000000" d="M 372.769531 304.152344 C 351.042969 273.726562 323.730469 273.53125 292.320312 288.699219 C 260.898438 273.53125 233.589844 273.726562 211.867188 304.152344 C 190.960938 333.410156 193.050781 341.765625 170.070312 357.09375 C 190.171875 373.164062 264.359375 386.632812 292.320312 321.949219 C 320.269531 386.632812 394.46875 373.164062 414.570312 357.09375 C 391.578125 341.765625 393.667969 333.410156 372.769531 304.152344 Z M 372.769531 304.152344 " fill-opacity="1" fill-rule="nonzero"/></g><g clip-path="url(#efe24d9b19)"><path fill="#000000" d="M 410.113281 132.511719 L 304.503906 132.511719 C 304.503906 132.511719 304.460938 134.609375 304.609375 138.160156 C 298.953125 136.789062 297.4375 136.035156 291.011719 136.027344 C 285.707031 136.027344 285.269531 136.59375 280.460938 137.53125 C 280.582031 134.375 280.546875 132.511719 280.546875 132.511719 L 174.9375 132.511719 C 160.765625 132.511719 149.277344 144 149.277344 158.175781 C 149.277344 159.195312 149.277344 164.085938 149.277344 183.808594 C 149.277344 213.992188 203.589844 247.179688 242.820312 221.535156 C 267.574219 205.351562 276.097656 174.183594 279.027344 153.355469 C 283.941406 151.964844 284.960938 151.117188 291.011719 151.117188 C 298.226562 151.117188 300.324219 152.28125 305.796875 154.1875 L 306.042969 153.488281 C 308.988281 174.3125 317.539062 205.398438 342.230469 221.535156 C 381.460938 247.179688 435.777344 213.992188 435.777344 183.808594 C 435.777344 164.085938 435.777344 159.199219 435.777344 158.175781 C 435.777344 144 424.289062 132.511719 410.113281 132.511719 Z M 167.382812 186.824219 C 163.359375 136.535156 206.613281 147.59375 206.613281 147.59375 Z M 333.164062 186.824219 C 329.140625 136.535156 372.40625 147.59375 372.40625 147.59375 Z M 333.164062 186.824219 " fill-opacity="1" fill-rule="nonzero"/></g><g transform="matrix(1, 0, 0, 1, 239, 187)"><g clip-path="url(#75a8893b26)"><g fill="#000000" fill-opacity="1"><g transform="translate(28.256895, 31.300064)"><g><path d="M 14.609375 -20.125 L 14.609375 -17.984375 L 9.125 -17.984375 L 9.125 0 L 6.5 0 L 6.5 -17.984375 L 0.984375 -17.984375 L 0.984375 -20.125 Z M 14.609375 -20.125 "/></g></g></g><g fill="#000000" fill-opacity="1"><g transform="translate(43.878051, 31.300064)"><g><path d="M 17.734375 -20.125 L 17.734375 0 L 15.109375 0 L 15.109375 -9.125 L 4.84375 -9.125 L 4.84375 0 L 2.21875 0 L 2.21875 -20.125 L 4.84375 -20.125 L 4.84375 -11.296875 L 15.109375 -11.296875 L 15.109375 -20.125 Z M 17.734375 -20.125 "/></g></g></g><g fill="#000000" fill-opacity="1"><g transform="translate(63.859271, 31.300064)"><g><path d="M 4.84375 -17.984375 L 4.84375 -11.265625 L 12.1875 -11.265625 L 12.1875 -9.09375 L 4.84375 -9.09375 L 4.84375 -2.171875 L 13.046875 -2.171875 L 13.046875 0 L 2.21875 0 L 2.21875 -20.15625 L 13.046875 -20.15625 L 13.046875 -17.984375 Z M 4.84375 -17.984375 "/></g></g></g><g fill="#000000" fill-opacity="1"><g transform="translate(0.562187, 88.963407)"><g><path d="M 28.5 0 L 24.359375 0 L 7.65625 -25.3125 L 7.65625 0 L 3.515625 0 L 3.515625 -31.828125 L 7.65625 -31.828125 L 24.359375 -6.5625 L 24.359375 -31.828125 L 28.5 -31.828125 Z M 28.5 0 "/></g></g></g><g fill="#000000" fill-opacity="1"><g transform="translate(32.62407, 88.963407)"><g><path d="M 7.65625 -31.796875 L 7.65625 0 L 3.515625 0 L 3.515625 -31.796875 Z M 7.65625 -31.796875 "/></g></g></g><g fill="#000000" fill-opacity="1"><g transform="translate(43.843453, 88.963407)"><g><path d="M 1.96875 -15.921875 C 1.96875 -19.015625 2.664062 -21.800781 4.0625 -24.28125 C 5.457031 -26.757812 7.363281 -28.695312 9.78125 -30.09375 C 12.195312 -31.5 14.878906 -32.203125 17.828125 -32.203125 C 21.296875 -32.203125 24.320312 -31.363281 26.90625 -29.6875 C 29.488281 -28.019531 31.375 -25.648438 32.5625 -22.578125 L 27.59375 -22.578125 C 26.707031 -24.492188 25.4375 -25.96875 23.78125 -27 C 22.125 -28.03125 20.140625 -28.546875 17.828125 -28.546875 C 15.609375 -28.546875 13.617188 -28.03125 11.859375 -27 C 10.097656 -25.96875 8.710938 -24.5 7.703125 -22.59375 C 6.703125 -20.695312 6.203125 -18.472656 6.203125 -15.921875 C 6.203125 -13.390625 6.703125 -11.175781 7.703125 -9.28125 C 8.710938 -7.382812 10.097656 -5.914062 11.859375 -4.875 C 13.617188 -3.84375 15.609375 -3.328125 17.828125 -3.328125 C 20.140625 -3.328125 22.125 -3.835938 23.78125 -4.859375 C 25.4375 -5.878906 26.707031 -7.347656 27.59375 -9.265625 L 32.5625 -9.265625 C 31.375 -6.222656 29.488281 -3.867188 26.90625 -2.203125 C 24.320312 -0.546875 21.296875 0.28125 17.828125 0.28125 C 14.878906 0.28125 12.195312 -0.410156 9.78125 -1.796875 C 7.363281 -3.179688 5.457031 -5.101562 4.0625 -7.5625 C 2.664062 -10.03125 1.96875 -12.816406 1.96875 -15.921875 Z M 1.96875 -15.921875 "/></g></g></g><g fill="#000000" fill-opacity="1"><g transform="translate(79.052233, 88.963407)"><g><path d="M 20.75 0 L 7.65625 -14.5 L 7.65625 0 L 3.515625 0 L 3.515625 -31.796875 L 7.65625 -31.796875 L 7.65625 -17.0625 L 20.796875 -31.796875 L 26.046875 -31.796875 L 11.625 -15.875 L 26.1875 0 Z M 20.75 0 "/></g></g></g></g></g></svg>
